<svg xmlns="http://www.w3.org/2000/svg" width="51.541" height="35.183" viewBox="0 0 51.541 35.183">
  <g id="DECO2" transform="translate(-601 -945.786)">
    <g id="Grupo_39" data-name="Grupo 39" transform="translate(601 950.142)">
      <g id="Grupo_38" data-name="Grupo 38">
        <path id="Trazado_118" data-name="Trazado 118" d="M601,971.367c2.946,6.408,9.428,10.238,16.352,11.049a17.1,17.1,0,0,0,10.9-2.431c3.683-2.283,7.881-7,7-11.712-1.031-5.6-11.27-6.924-13.185-1.252-2.5,7.292,7.292,11.27,13.037,10.533,11.712-1.473,16.5-15.247,11.564-24.9-.368-.81-3.388-.884-3.388-.958a17.053,17.053,0,0,1-2.725,19.961c-2.21,2.357-5.966,4.935-9.354,4.714a6.2,6.2,0,0,1-5.23-9.134c.663-1.179,2.136-2.652,3.609-2.652,2.431.074,2.431,3.535,2.062,5.3a14.308,14.308,0,0,1-5.082,7.66c-2.8,2.283-7.145,4.125-10.828,3.756-5.23-.589-9.134-4.2-11.2-8.839-.442-.958-3.315-.737-3.536-1.1Z" transform="translate(-601 -951.7)" fill="#ce9ec8"/>
      </g>
    </g>
    <g id="Grupo_41" data-name="Grupo 41" transform="translate(638.244 945.786)">
      <g id="Grupo_40" data-name="Grupo 40">
        <path id="Trazado_119" data-name="Trazado 119" d="M654.537,956.256c.663-1.326,1.252-2.578,1.915-3.9.589-1.178,1.1-2.946,1.989-3.9a6.745,6.745,0,0,0-1.252.074c1.1.516,2.283,2.357,3.094,3.241,1.031,1.178,2.062,2.431,3.02,3.756,1.1,1.473,3.536,1.179,2.136-.81a53.162,53.162,0,0,0-4.125-5.009c-1.252-1.326-2.578-3.02-4.2-3.756-.368-.147-.958-.295-1.252.074a15.359,15.359,0,0,0-1.915,3.609c-.737,1.547-1.547,3.094-2.283,4.714-.663,1.1,2.136,3.388,2.873,1.915Z" transform="translate(-651.563 -945.786)" fill="#ce9ec8"/>
      </g>
    </g>
    <g id="Grupo_43" data-name="Grupo 43" transform="translate(643.102 947.995)">
      <g id="Grupo_42" data-name="Grupo 42">
        <path id="Trazado_120" data-name="Trazado 120" d="M658.189,950.048a3.256,3.256,0,0,1,.147,1.473c-.147.81,1.031,1.326,1.694,1.326.663.074,1.841-.074,1.989-.958a6.506,6.506,0,0,0-.147-2.062c-.221-.81-1.4-1.1-2.136-1.031s-1.768.368-1.547,1.252Z" transform="translate(-658.159 -948.785)" fill="#ce9ec8"/>
      </g>
    </g>
  </g>
</svg>
