<svg xmlns="http://www.w3.org/2000/svg" xmlns:xlink="http://www.w3.org/1999/xlink" width="57" height="57" viewBox="0 0 57 57"><defs><filter id="a" x="0" y="0" width="57" height="57" filterUnits="userSpaceOnUse"><feOffset dx="4" dy="4" input="SourceAlpha"/><feGaussianBlur stdDeviation="3" result="b"/><feFlood flood-opacity="0.161"/><feComposite operator="in" in2="b"/><feComposite in="SourceGraphic"/></filter><filter id="c" x="8.5" y="17.576" width="40.5" height="21" filterUnits="userSpaceOnUse"><feOffset dx="4" dy="4" input="SourceAlpha"/><feGaussianBlur stdDeviation="3" result="d"/><feFlood flood-opacity="0.161"/><feComposite operator="in" in2="d"/><feComposite in="SourceGraphic"/></filter><filter id="e" x="8.5" y="23.511" width="40.5" height="21" filterUnits="userSpaceOnUse"><feOffset dx="4" dy="4" input="SourceAlpha"/><feGaussianBlur stdDeviation="3" result="f"/><feFlood flood-opacity="0.161"/><feComposite operator="in" in2="f"/><feComposite in="SourceGraphic"/></filter><filter id="g" x="8.5" y="11.641" width="40.5" height="21" filterUnits="userSpaceOnUse"><feOffset dx="4" dy="4" input="SourceAlpha"/><feGaussianBlur stdDeviation="3" result="h"/><feFlood flood-opacity="0.161"/><feComposite operator="in" in2="h"/><feComposite in="SourceGraphic"/></filter></defs><g transform="translate(5 5)"><g transform="matrix(1, 0, 0, 1, -5, -5)" filter="url(#a)"><g transform="translate(5 5)" fill="none" stroke="#fff" stroke-width="3"><circle cx="19.5" cy="19.5" r="19.5" stroke="none"/><circle cx="19.5" cy="19.5" r="18" fill="none"/></g></g><g transform="matrix(1, 0, 0, 1, -5, -5)" filter="url(#c)"><line x2="19.5" transform="translate(15 24.08)" fill="none" stroke="#fff" stroke-linecap="round" stroke-width="3"/></g><g transform="matrix(1, 0, 0, 1, -5, -5)" filter="url(#e)"><line x2="19.5" transform="translate(15 30.01)" fill="none" stroke="#fff" stroke-linecap="round" stroke-width="3"/></g><g transform="matrix(1, 0, 0, 1, -5, -5)" filter="url(#g)"><line x2="19.5" transform="translate(15 18.14)" fill="none" stroke="#fff" stroke-linecap="round" stroke-width="3"/></g></g></svg>