<svg xmlns="http://www.w3.org/2000/svg" width="136.604" height="49.071" viewBox="0 0 136.604 49.071"><g transform="translate(0 0)"><g transform="translate(0 0)"><path d="M142.725,287.772a60.529,60.529,0,0,0-31.333-3.538c-9.759,1.6-22.087,5.878-26.824,15.409-4.965,9.873,2.169,18.434,10.558,23.114,9.531,5.251,20.432,6.792,31.219,6.734,6.278-.057,12.613-.514,18.891-.628s12.556.114,18.891.285c11.928.285,24.085.228,35.613-3.082,8.161-2.4,20.66-7.762,19.747-18.263-.913-10.444-13.412-14.782-21.63-17.807-23.514-8.675-51.137-15.238-74.422-2.283-.628.342,3.653,3.2,4.908,2.511,17.921-10.045,39.152-8.275,58.157-2.454,4.965,1.484,9.873,3.253,14.725,5.079,4.794,1.826,9.531,4.166,11.871,9.017,4.28,8.9-4.052,16.094-11.414,19.29-19.29,8.39-40.807,4.737-61.181,5.137-10.387.228-20.888,1.427-31.219-.228-8.789-1.427-20.261-6.221-21-16.551-.856-11.414,11.186-17.978,20.489-20.888a51.446,51.446,0,0,1,33.5.628c.342.114,2.739,1.141,2.911.4.114-.8-2.055-1.712-2.454-1.883Z" transform="translate(-82.93 -280.422)" fill="#cd9ec9"/></g></g></svg>